{
  "accessors": [
    {
      "bufferView": 2,
      "componentType": 5126,
      "count": 15570,
      "max": [
        5.3717656135559082,
        3.8374869823455811,
        28.301055908203125
      ],
      "min": [
        -5.3717656135559082,
        -3.837486743927002,
        -28.301055908203125
      ],
      "type": "VEC3"
    },
    {
      "bufferView": 2,
      "byteOffset": 186840,
      "componentType": 5126,
      "count": 15570,
      "max": [
        0.99998533725738525,
        0.99998325109481812,
        0.99996119737625122
      ],
      "min": [
        -0.99995845556259155,
        -0.99998915195465088,
        -0.99992340803146362
      ],
      "type": "VEC3"
    },
    {
      "bufferView": 3,
      "componentType": 5126,
      "count": 15570,
      "max": [
        0.99962997436523438,
        0.99949580430984497,
        0.99650096893310547,
        1
      ],
      "min": [
        -0.99713784456253052,
        -0.99974262714385986,
        -0.99998098611831665,
        1
      ],
      "type": "VEC4"
    },
    {
      "bufferView": 1,
      "componentType": 5126,
      "count": 15570,
      "max": [
        0.99799990653991699,
        0.99755656719207764
      ],
      "min": [
        0.0020000000949949026,
        0.0020000014919787645
      ],
      "type": "VEC2"
    },
    {
      "bufferView": 0,
      "componentType": 5125,
      "count": 90000,
      "max": [
        15569
      ],
      "min": [
        0
      ],
      "type": "SCALAR"
    }
  ],
  "asset": {
    "extras": {
      "author": "3dhdscan (https://sketchfab.com/3dhdscan)",
      "license": "CC-BY-4.0 (http://creativecommons.org/licenses/by/4.0/)",
      "source": "https://sketchfab.com/models/b7fe8a4a3c2f4f038662ae47cfbfa6a7",
      "title": "Wood Stick 04"
    },
    "generator": "Sketchfab-3.19.6",
    "version": "2.0"
  },
  "bufferViews": [
    {
      "buffer": 0,
      "byteLength": 360000,
      "byteOffset": 0,
      "name": "floatBufferViews",
      "target": 34963
    },
    {
      "buffer": 0,
      "byteLength": 124560,
      "byteOffset": 360000,
      "byteStride": 8,
      "name": "floatBufferViews",
      "target": 34962
    },
    {
      "buffer": 0,
      "byteLength": 373680,
      "byteOffset": 484560,
      "byteStride": 12,
      "name": "floatBufferViews",
      "target": 34962
    },
    {
      "buffer": 0,
      "byteLength": 249120,
      "byteOffset": 858240,
      "byteStride": 16,
      "name": "floatBufferViews",
      "target": 34962
    }
  ],
  "buffers": [
    {
      "byteLength": 1107360,
      "uri": "scene.bin"
    }
  ],
  "images": [
    {
      "uri": "textures/wood_stick_04_metallicRoughness.png"
    },
    {
      "uri": "textures/wood_stick_04_normal.jpeg"
    },
    {
      "uri": "textures/wood_stick_04_baseColor.jpeg"
    }
  ],
  "materials": [
    {
      "doubleSided": true,
      "emissiveFactor": [
        0,
        0,
        0
      ],
      "name": "wood_stick_04",
      "normalTexture": {
        "index": 1,
        "scale": 1,
        "texCoord": 0
      },
      "occlusionTexture": {
        "index": 0,
        "strength": 1,
        "texCoord": 0
      },
      "pbrMetallicRoughness": {
        "baseColorFactor": [
          1,
          1,
          1,
          1
        ],
        "baseColorTexture": {
          "index": 2,
          "texCoord": 0
        },
        "metallicFactor": 0,
        "roughnessFactor": 0.90842690169999996
      }
    }
  ],
  "meshes": [
    {
      "name": "wood_stick_04_wood_stick_04_0",
      "primitives": [
        {
          "attributes": {
            "NORMAL": 1,
            "POSITION": 0,
            "TANGENT": 2,
            "TEXCOORD_0": 3
          },
          "indices": 4,
          "material": 0,
          "mode": 4
        }
      ]
    }
  ],
  "nodes": [
    {
      "children": [
        1
      ],
      "name": "RootNode (gltf orientation matrix)",
      "rotation": [
        -0.70710678118654746,
        -0,
        -0,
        0.70710678118654757
      ]
    },
    {
      "children": [
        2
      ],
      "matrix": [
        0.085442468523979187,
        0,
        -0.99634307622909546,
        0,
        0,
        -1,
        0,
        0,
        -0.99634307622909546,
        0,
        -0.085442468523979187,
        0,
        -3.298682689666748,
        7.6683783531188965,
        -3.5936717987060547,
        1
      ],
      "name": "RootNode (model correction matrix)"
    },
    {
      "children": [
        3
      ],
      "matrix": [
        1,
        0,
        0,
        0,
        0,
        -1,
        0,
        0,
        0,
        0,
        -1,
        0,
        0,
        0,
        0,
        1
      ],
      "name": "wood_stick_04.FBX"
    },
    {
      "children": [
        4
      ],
      "name": "RootNode"
    },
    {
      "children": [
        5
      ],
      "matrix": [
        1,
        0,
        0,
        0,
        0,
        1,
        0,
        0,
        0,
        0,
        1,
        0,
        0.23020601272583008,
        -3.8341870307922363,
        3.5221776962280273,
        1
      ],
      "name": "wood_stick_04"
    },
    {
      "mesh": 0,
      "name": "wood_stick_04_wood_stick_04_0"
    }
  ],
  "samplers": [
    {
      "magFilter": 9729,
      "minFilter": 9987,
      "wrapS": 10497,
      "wrapT": 10497
    }
  ],
  "scene": 0,
  "scenes": [
    {
      "name": "OSG_Scene",
      "nodes": [
        0
      ]
    }
  ],
  "textures": [
    {
      "sampler": 0,
      "source": 0
    },
    {
      "sampler": 0,
      "source": 1
    },
    {
      "sampler": 0,
      "source": 2
    }
  ]
}

